<svg width="123" height="40" viewBox="0 0 123 40" fill="none" xmlns="http://www.w3.org/2000/svg">
<rect x="0.666748" width="122" height="40" rx="20" fill="#0E172C"/>
<g clip-path="url(#clip0)">
<path d="M37.5069 12.6101C36.9961 12.0991 36.3897 11.6938 35.7222 11.4172C35.0548 11.1406 34.3394 10.9983 33.6169 10.9983C32.8944 10.9983 32.179 11.1406 31.5115 11.4172C30.8441 11.6938 30.2376 12.0991 29.7269 12.6101L28.6669 13.6701L27.6069 12.6101C26.5752 11.5784 25.1759 10.9988 23.7169 10.9988C22.2578 10.9988 20.8586 11.5784 19.8269 12.6101C18.7952 13.6418 18.2156 15.0411 18.2156 16.5001C18.2156 17.9591 18.7952 19.3584 19.8269 20.3901L20.8869 21.4501L28.6669 29.2301L36.4469 21.4501L37.5069 20.3901C38.0179 19.8794 38.4232 19.2729 38.6998 18.6055C38.9763 17.938 39.1187 17.2226 39.1187 16.5001C39.1187 15.7776 38.9763 15.0622 38.6998 14.3948C38.4232 13.7273 38.0179 13.1209 37.5069 12.6101V12.6101Z" stroke="#85D1CE" stroke-width="2" stroke-linecap="round" stroke-linejoin="round"/>
</g>
<path d="M50.4587 24.57C50.2814 24.57 50.1414 24.5187 50.0387 24.416C49.9361 24.304 49.8847 24.1593 49.8847 23.982V15.19C49.8847 15.022 49.9361 14.8867 50.0387 14.784C50.1507 14.6813 50.2954 14.63 50.4727 14.63H55.5687C55.7367 14.63 55.8674 14.672 55.9607 14.756C56.0541 14.84 56.1007 14.9613 56.1007 15.12C56.1007 15.2693 56.0541 15.386 55.9607 15.47C55.8674 15.554 55.7367 15.596 55.5687 15.596H51.0187V18.998H55.2887C55.4567 18.998 55.5874 19.04 55.6807 19.124C55.7741 19.208 55.8207 19.3293 55.8207 19.488C55.8207 19.6373 55.7741 19.754 55.6807 19.838C55.5874 19.922 55.4567 19.964 55.2887 19.964H51.0187V23.982C51.0187 24.1593 50.9674 24.304 50.8647 24.416C50.7714 24.5187 50.6361 24.57 50.4587 24.57ZM60.1606 17.514C61.8686 17.514 62.7226 18.41 62.7226 20.202V24.01C62.7226 24.178 62.6713 24.3133 62.5686 24.416C62.4753 24.5187 62.3446 24.57 62.1766 24.57C62.0086 24.57 61.8733 24.5187 61.7706 24.416C61.668 24.3133 61.6166 24.178 61.6166 24.01V23.338C61.4393 23.7393 61.1686 24.052 60.8046 24.276C60.4406 24.4907 60.0206 24.598 59.5446 24.598C59.106 24.598 58.7 24.5093 58.3266 24.332C57.9626 24.1547 57.6733 23.9073 57.4586 23.59C57.244 23.2727 57.1366 22.9227 57.1366 22.54C57.1366 22.0267 57.2673 21.63 57.5286 21.35C57.79 21.0607 58.2193 20.8553 58.8166 20.734C59.414 20.6033 60.2446 20.538 61.3086 20.538H61.6166V20.076C61.6166 19.516 61.5 19.1053 61.2666 18.844C61.0426 18.5827 60.674 18.452 60.1606 18.452C59.526 18.452 58.882 18.6247 58.2286 18.97C57.9766 19.1287 57.7993 19.208 57.6966 19.208C57.5846 19.208 57.4913 19.166 57.4166 19.082C57.342 18.998 57.3046 18.8907 57.3046 18.76C57.3046 18.6293 57.342 18.5173 57.4166 18.424C57.5006 18.3213 57.6313 18.2187 57.8086 18.116C58.1353 17.9293 58.504 17.7847 58.9146 17.682C59.3346 17.57 59.75 17.514 60.1606 17.514ZM59.6986 23.702C60.2586 23.702 60.716 23.5153 61.0706 23.142C61.4346 22.7593 61.6166 22.2693 61.6166 21.672V21.266H61.3646C60.5433 21.266 59.918 21.3033 59.4886 21.378C59.0593 21.4433 58.7513 21.56 58.5646 21.728C58.3873 21.8867 58.2986 22.1247 58.2986 22.442C58.2986 22.806 58.4293 23.1093 58.6906 23.352C58.9613 23.5853 59.2973 23.702 59.6986 23.702ZM69.7825 17.892C69.8851 17.668 70.0485 17.556 70.2725 17.556C70.4125 17.556 70.5385 17.6027 70.6505 17.696C70.7625 17.7893 70.8185 17.906 70.8185 18.046C70.8185 18.13 70.7998 18.2047 70.7625 18.27L68.0325 24.15C67.9765 24.2713 67.8925 24.3693 67.7805 24.444C67.6685 24.5093 67.5471 24.542 67.4165 24.542C67.2951 24.542 67.1785 24.5093 67.0665 24.444C66.9545 24.3693 66.8658 24.2713 66.8005 24.15L64.0845 18.27C64.0471 18.2047 64.0285 18.1347 64.0285 18.06C64.0285 17.92 64.0891 17.7987 64.2105 17.696C64.3411 17.5933 64.4811 17.542 64.6305 17.542C64.7238 17.542 64.8125 17.57 64.8965 17.626C64.9898 17.682 65.0598 17.7613 65.1065 17.864L67.4445 23.114L69.7825 17.892ZM74.8758 24.598C74.2318 24.598 73.6625 24.4533 73.1678 24.164C72.6825 23.8747 72.3045 23.464 72.0338 22.932C71.7725 22.3907 71.6418 21.7653 71.6418 21.056C71.6418 20.3467 71.7725 19.726 72.0338 19.194C72.3045 18.6527 72.6825 18.2373 73.1678 17.948C73.6625 17.6587 74.2318 17.514 74.8758 17.514C75.5198 17.514 76.0892 17.6587 76.5838 17.948C77.0785 18.2373 77.4565 18.6527 77.7178 19.194C77.9885 19.726 78.1238 20.3467 78.1238 21.056C78.1238 21.7653 77.9885 22.3907 77.7178 22.932C77.4565 23.464 77.0785 23.8747 76.5838 24.164C76.0892 24.4533 75.5198 24.598 74.8758 24.598ZM74.8758 23.66C75.5478 23.66 76.0612 23.4407 76.4158 23.002C76.7798 22.554 76.9618 21.9053 76.9618 21.056C76.9618 20.2253 76.7798 19.586 76.4158 19.138C76.0518 18.6807 75.5385 18.452 74.8758 18.452C74.2132 18.452 73.6998 18.6807 73.3358 19.138C72.9718 19.586 72.7898 20.2253 72.7898 21.056C72.7898 21.896 72.9672 22.54 73.3218 22.988C73.6858 23.436 74.2038 23.66 74.8758 23.66ZM83.2575 17.542C83.6495 17.514 83.8455 17.6727 83.8455 18.018C83.8455 18.1673 83.8035 18.2887 83.7195 18.382C83.6355 18.466 83.4908 18.5173 83.2855 18.536L82.8655 18.578C82.2401 18.634 81.7735 18.858 81.4655 19.25C81.1668 19.6327 81.0175 20.0853 81.0175 20.608V24.01C81.0175 24.1967 80.9661 24.3367 80.8635 24.43C80.7608 24.5233 80.6255 24.57 80.4575 24.57C80.2895 24.57 80.1495 24.5233 80.0375 24.43C79.9348 24.3273 79.8835 24.1873 79.8835 24.01V18.102C79.8835 17.9247 79.9395 17.7893 80.0515 17.696C80.1635 17.5933 80.2988 17.542 80.4575 17.542C80.6068 17.542 80.7328 17.5933 80.8355 17.696C80.9381 17.7893 80.9895 17.92 80.9895 18.088V18.872C81.1855 18.4613 81.4608 18.1487 81.8155 17.934C82.1795 17.7193 82.5948 17.5933 83.0615 17.556L83.2575 17.542ZM85.463 24.57C85.295 24.57 85.155 24.5233 85.043 24.43C84.9403 24.3273 84.889 24.1873 84.889 24.01V18.102C84.889 17.9247 84.9403 17.7893 85.043 17.696C85.155 17.5933 85.295 17.542 85.463 17.542C85.631 17.542 85.7663 17.5933 85.869 17.696C85.9717 17.7893 86.023 17.9247 86.023 18.102V24.01C86.023 24.1967 85.9717 24.3367 85.869 24.43C85.7663 24.5233 85.631 24.57 85.463 24.57ZM85.463 16.072C85.239 16.072 85.057 16.0067 84.917 15.876C84.777 15.7453 84.707 15.5727 84.707 15.358C84.707 15.1527 84.777 14.9847 84.917 14.854C85.057 14.7233 85.239 14.658 85.463 14.658C85.687 14.658 85.869 14.7233 86.009 14.854C86.149 14.9847 86.219 15.1527 86.219 15.358C86.219 15.5727 86.149 15.7453 86.009 15.876C85.869 16.0067 85.687 16.072 85.463 16.072ZM91.4723 23.674C91.799 23.702 91.9623 23.8513 91.9623 24.122C91.9623 24.2807 91.9016 24.402 91.7803 24.486C91.6683 24.5607 91.4956 24.5887 91.2623 24.57L90.8843 24.542C90.1376 24.486 89.587 24.262 89.2323 23.87C88.8776 23.478 88.7003 22.8853 88.7003 22.092V18.578H87.7623C87.6036 18.578 87.4776 18.5407 87.3843 18.466C87.3003 18.382 87.2583 18.2747 87.2583 18.144C87.2583 18.004 87.3003 17.892 87.3843 17.808C87.4776 17.724 87.6036 17.682 87.7623 17.682H88.7003V16.1C88.7003 15.9227 88.7516 15.7873 88.8543 15.694C88.957 15.5913 89.097 15.54 89.2743 15.54C89.4423 15.54 89.5776 15.5913 89.6803 15.694C89.783 15.7873 89.8343 15.9227 89.8343 16.1V17.682H91.3883C91.5376 17.682 91.6543 17.724 91.7383 17.808C91.8316 17.892 91.8783 18.004 91.8783 18.144C91.8783 18.2747 91.8316 18.382 91.7383 18.466C91.6543 18.5407 91.5376 18.578 91.3883 18.578H89.8343V22.148C89.8343 22.6613 89.937 23.0347 90.1423 23.268C90.357 23.492 90.6743 23.618 91.0943 23.646L91.4723 23.674ZM95.9781 24.598C95.3341 24.598 94.7648 24.4533 94.2701 24.164C93.7848 23.8747 93.4068 23.464 93.1361 22.932C92.8748 22.3907 92.7441 21.7653 92.7441 21.056C92.7441 20.3467 92.8748 19.726 93.1361 19.194C93.4068 18.6527 93.7848 18.2373 94.2701 17.948C94.7648 17.6587 95.3341 17.514 95.9781 17.514C96.6221 17.514 97.1914 17.6587 97.6861 17.948C98.1808 18.2373 98.5588 18.6527 98.8201 19.194C99.0908 19.726 99.2261 20.3467 99.2261 21.056C99.2261 21.7653 99.0908 22.3907 98.8201 22.932C98.5588 23.464 98.1808 23.8747 97.6861 24.164C97.1914 24.4533 96.6221 24.598 95.9781 24.598ZM95.9781 23.66C96.6501 23.66 97.1634 23.4407 97.5181 23.002C97.8821 22.554 98.0641 21.9053 98.0641 21.056C98.0641 20.2253 97.8821 19.586 97.5181 19.138C97.1541 18.6807 96.6408 18.452 95.9781 18.452C95.3154 18.452 94.8021 18.6807 94.4381 19.138C94.0741 19.586 93.8921 20.2253 93.8921 21.056C93.8921 21.896 94.0694 22.54 94.4241 22.988C94.7881 23.436 95.3061 23.66 95.9781 23.66ZM103.282 24.598C102.852 24.598 102.442 24.5467 102.05 24.444C101.667 24.3413 101.326 24.1967 101.028 24.01C100.86 23.898 100.738 23.7953 100.664 23.702C100.598 23.5993 100.566 23.478 100.566 23.338C100.566 23.2167 100.598 23.1187 100.664 23.044C100.738 22.96 100.832 22.918 100.944 22.918C101.056 22.918 101.219 22.988 101.434 23.128C101.714 23.296 101.989 23.4313 102.26 23.534C102.54 23.6273 102.885 23.674 103.296 23.674C103.8 23.674 104.192 23.5853 104.472 23.408C104.752 23.2307 104.892 22.974 104.892 22.638C104.892 22.4327 104.84 22.2693 104.738 22.148C104.635 22.0173 104.458 21.9053 104.206 21.812C103.954 21.7093 103.585 21.6067 103.1 21.504C102.278 21.3267 101.69 21.0887 101.336 20.79C100.981 20.4913 100.804 20.0853 100.804 19.572C100.804 19.1707 100.916 18.816 101.14 18.508C101.364 18.2 101.672 17.9573 102.064 17.78C102.465 17.6027 102.918 17.514 103.422 17.514C103.786 17.514 104.136 17.5653 104.472 17.668C104.817 17.7613 105.12 17.8967 105.382 18.074C105.699 18.298 105.858 18.5313 105.858 18.774C105.858 18.8953 105.82 18.998 105.746 19.082C105.671 19.166 105.582 19.208 105.48 19.208C105.368 19.208 105.2 19.1287 104.976 18.97C104.714 18.802 104.467 18.6713 104.234 18.578C104 18.4847 103.711 18.438 103.366 18.438C102.927 18.438 102.572 18.536 102.302 18.732C102.04 18.928 101.91 19.1893 101.91 19.516C101.91 19.7213 101.956 19.8893 102.05 20.02C102.152 20.1413 102.316 20.2533 102.54 20.356C102.773 20.4493 103.104 20.5427 103.534 20.636C104.168 20.776 104.658 20.93 105.004 21.098C105.358 21.266 105.61 21.4713 105.76 21.714C105.909 21.9567 105.984 22.2647 105.984 22.638C105.984 23.226 105.736 23.702 105.242 24.066C104.747 24.4207 104.094 24.598 103.282 24.598Z" fill="#85D1CE"/>
<defs>
<clipPath id="clip0">
<rect width="24" height="24" fill="white" transform="translate(16.6667 8)"/>
</clipPath>
</defs>
</svg>
