<svg width="102" height="40" viewBox="0 0 102 40" fill="none" xmlns="http://www.w3.org/2000/svg">
<rect width="102" height="40" rx="20" fill="#0E172C"/>
<path d="M19 17L28 10L37 17V28C37 28.5304 36.7893 29.0391 36.4142 29.4142C36.0391 29.7893 35.5304 30 35 30H21C20.4696 30 19.9609 29.7893 19.5858 29.4142C19.2107 29.0391 19 28.5304 19 28V17Z" stroke="#85D1CE" stroke-width="2" stroke-linecap="round" stroke-linejoin="round"/>
<path d="M25 30V20H31V30" stroke="#85D1CE" stroke-width="2" stroke-linecap="round" stroke-linejoin="round"/>
<path d="M56.834 14.56C57.0113 14.56 57.1467 14.616 57.24 14.728C57.3427 14.8307 57.394 14.9707 57.394 15.148V23.982C57.394 24.1593 57.3427 24.304 57.24 24.416C57.1467 24.5187 57.0113 24.57 56.834 24.57C56.6567 24.57 56.5167 24.5187 56.414 24.416C56.3113 24.304 56.26 24.1593 56.26 23.982V19.978H50.352V23.982C50.352 24.1593 50.3007 24.304 50.198 24.416C50.0953 24.5187 49.9553 24.57 49.778 24.57C49.6007 24.57 49.4607 24.5187 49.358 24.416C49.2647 24.304 49.218 24.1593 49.218 23.982V15.148C49.218 14.9707 49.2647 14.8307 49.358 14.728C49.4607 14.616 49.6007 14.56 49.778 14.56C49.9553 14.56 50.0953 14.616 50.198 14.728C50.3007 14.8307 50.352 14.9707 50.352 15.148V18.998H56.26V15.148C56.26 14.9707 56.3113 14.8307 56.414 14.728C56.5167 14.616 56.6567 14.56 56.834 14.56ZM62.5574 24.598C61.9134 24.598 61.344 24.4533 60.8494 24.164C60.364 23.8747 59.986 23.464 59.7154 22.932C59.454 22.3907 59.3234 21.7653 59.3234 21.056C59.3234 20.3467 59.454 19.726 59.7154 19.194C59.986 18.6527 60.364 18.2373 60.8494 17.948C61.344 17.6587 61.9134 17.514 62.5574 17.514C63.2014 17.514 63.7707 17.6587 64.2654 17.948C64.76 18.2373 65.138 18.6527 65.3994 19.194C65.67 19.726 65.8054 20.3467 65.8054 21.056C65.8054 21.7653 65.67 22.3907 65.3994 22.932C65.138 23.464 64.76 23.8747 64.2654 24.164C63.7707 24.4533 63.2014 24.598 62.5574 24.598ZM62.5574 23.66C63.2294 23.66 63.7427 23.4407 64.0974 23.002C64.4614 22.554 64.6434 21.9053 64.6434 21.056C64.6434 20.2253 64.4614 19.586 64.0974 19.138C63.7334 18.6807 63.22 18.452 62.5574 18.452C61.8947 18.452 61.3814 18.6807 61.0174 19.138C60.6534 19.586 60.4714 20.2253 60.4714 21.056C60.4714 21.896 60.6487 22.54 61.0034 22.988C61.3674 23.436 61.8854 23.66 62.5574 23.66ZM75.153 17.514C76.665 17.514 77.421 18.4147 77.421 20.216V24.01C77.421 24.1873 77.3697 24.3273 77.267 24.43C77.1643 24.5233 77.029 24.57 76.861 24.57C76.693 24.57 76.553 24.5233 76.441 24.43C76.3383 24.3273 76.287 24.1873 76.287 24.01V20.244C76.287 19.6187 76.175 19.166 75.951 18.886C75.727 18.606 75.377 18.466 74.901 18.466C74.3317 18.466 73.8837 18.6573 73.557 19.04C73.2303 19.4227 73.067 19.9407 73.067 20.594V24.01C73.067 24.1873 73.011 24.3273 72.899 24.43C72.7963 24.5233 72.661 24.57 72.493 24.57C72.325 24.57 72.1897 24.5233 72.087 24.43C71.9843 24.3273 71.933 24.1873 71.933 24.01V20.244C71.933 19.6187 71.821 19.166 71.597 18.886C71.373 18.606 71.0183 18.466 70.533 18.466C69.973 18.466 69.525 18.6573 69.189 19.04C68.8623 19.4227 68.699 19.9407 68.699 20.594V24.01C68.699 24.1873 68.6477 24.3273 68.545 24.43C68.4423 24.5233 68.307 24.57 68.139 24.57C67.971 24.57 67.831 24.5233 67.719 24.43C67.6163 24.3273 67.565 24.1873 67.565 24.01V18.102C67.565 17.934 67.6163 17.7987 67.719 17.696C67.831 17.5933 67.971 17.542 68.139 17.542C68.2977 17.542 68.4283 17.5933 68.531 17.696C68.6337 17.7893 68.685 17.92 68.685 18.088V18.76C68.8903 18.3587 69.175 18.0507 69.539 17.836C69.903 17.6213 70.323 17.514 70.799 17.514C71.863 17.514 72.5583 17.962 72.885 18.858C73.081 18.4473 73.3797 18.1207 73.781 17.878C74.1823 17.6353 74.6397 17.514 75.153 17.514ZM84.8349 22.918C84.9375 22.918 85.0262 22.96 85.1009 23.044C85.1755 23.128 85.2129 23.2353 85.2129 23.366C85.2129 23.5993 85.0495 23.814 84.7229 24.01C84.3869 24.206 84.0322 24.3553 83.6589 24.458C83.2855 24.5513 82.9215 24.598 82.5669 24.598C81.5122 24.598 80.6769 24.2853 80.0609 23.66C79.4542 23.0347 79.1509 22.1713 79.1509 21.07C79.1509 20.37 79.2862 19.754 79.5569 19.222C79.8275 18.6807 80.2055 18.2607 80.6909 17.962C81.1855 17.6633 81.7455 17.514 82.3709 17.514C83.2575 17.514 83.9622 17.8033 84.4849 18.382C85.0075 18.9607 85.2689 19.7447 85.2689 20.734C85.2689 20.9207 85.2315 21.056 85.1569 21.14C85.0822 21.224 84.9609 21.266 84.7929 21.266H80.2849C80.3689 22.8713 81.1295 23.674 82.5669 23.674C82.9309 23.674 83.2435 23.6273 83.5049 23.534C83.7662 23.4313 84.0462 23.296 84.3449 23.128C84.5875 22.988 84.7509 22.918 84.8349 22.918ZM82.3849 18.396C81.7875 18.396 81.3069 18.5827 80.9429 18.956C80.5882 19.3293 80.3782 19.8567 80.3129 20.538H84.2749C84.2562 19.8473 84.0835 19.32 83.7569 18.956C83.4302 18.5827 82.9729 18.396 82.3849 18.396Z" fill="#85D1CE"/>
</svg>
