<svg width="125" height="40" viewBox="0 0 125 40" fill="none" xmlns="http://www.w3.org/2000/svg">
<rect x="0.666626" width="124" height="40" rx="20" fill="#0E172C"/>
<path d="M37.6666 19.5C37.6701 20.8199 37.3617 22.1219 36.7666 23.3C36.0611 24.7118 34.9764 25.8992 33.6341 26.7293C32.2918 27.5594 30.7449 27.9994 29.1666 28C27.8468 28.0035 26.5447 27.6951 25.3666 27.1L19.6666 29L21.5666 23.3C20.9716 22.1219 20.6632 20.8199 20.6666 19.5C20.6672 17.9218 21.1072 16.3749 21.9373 15.0326C22.7675 13.6903 23.9549 12.6056 25.3666 11.9C26.5447 11.305 27.8468 10.9966 29.1666 11H29.6666C31.751 11.115 33.7197 11.9948 35.1958 13.4709C36.6719 14.947 37.5516 16.9157 37.6666 19V19.5Z" stroke="#85D1CE" stroke-width="2" stroke-linecap="round" stroke-linejoin="round"/>
<path d="M58.6486 14.56C58.826 14.56 58.9613 14.616 59.0546 14.728C59.1573 14.8307 59.2086 14.9707 59.2086 15.148V24.01C59.2086 24.178 59.162 24.3133 59.0686 24.416C58.9753 24.5187 58.8446 24.57 58.6766 24.57C58.5086 24.57 58.3826 24.5187 58.2986 24.416C58.2146 24.3133 58.1726 24.178 58.1726 24.01V16.856L55.1346 22.68C55.004 22.9507 54.8126 23.086 54.5606 23.086C54.318 23.086 54.1266 22.9507 53.9866 22.68L50.9346 16.926V24.01C50.9346 24.178 50.888 24.3133 50.7946 24.416C50.7106 24.5187 50.5846 24.57 50.4166 24.57C50.2486 24.57 50.118 24.5187 50.0246 24.416C49.9313 24.3133 49.8846 24.178 49.8846 24.01V15.148C49.8846 14.9707 49.936 14.8307 50.0386 14.728C50.1413 14.616 50.2813 14.56 50.4586 14.56C50.692 14.56 50.8786 14.6953 51.0186 14.966L54.5746 21.784L58.0886 14.966C58.1633 14.8167 58.2426 14.714 58.3266 14.658C58.42 14.5927 58.5273 14.56 58.6486 14.56ZM66.8361 22.918C66.9388 22.918 67.0274 22.96 67.1021 23.044C67.1768 23.128 67.2141 23.2353 67.2141 23.366C67.2141 23.5993 67.0508 23.814 66.7241 24.01C66.3881 24.206 66.0334 24.3553 65.6601 24.458C65.2868 24.5513 64.9228 24.598 64.5681 24.598C63.5134 24.598 62.6781 24.2853 62.0621 23.66C61.4554 23.0347 61.1521 22.1713 61.1521 21.07C61.1521 20.37 61.2874 19.754 61.5581 19.222C61.8288 18.6807 62.2068 18.2607 62.6921 17.962C63.1868 17.6633 63.7468 17.514 64.3721 17.514C65.2588 17.514 65.9634 17.8033 66.4861 18.382C67.0088 18.9607 67.2701 19.7447 67.2701 20.734C67.2701 20.9207 67.2328 21.056 67.1581 21.14C67.0834 21.224 66.9621 21.266 66.7941 21.266H62.2861C62.3701 22.8713 63.1308 23.674 64.5681 23.674C64.9321 23.674 65.2448 23.6273 65.5061 23.534C65.7674 23.4313 66.0474 23.296 66.3461 23.128C66.5888 22.988 66.7521 22.918 66.8361 22.918ZM64.3861 18.396C63.7888 18.396 63.3081 18.5827 62.9441 18.956C62.5894 19.3293 62.3794 19.8567 62.3141 20.538H66.2761C66.2574 19.8473 66.0848 19.32 65.7581 18.956C65.4314 18.5827 64.9741 18.396 64.3861 18.396ZM72.4409 17.514C74.0743 17.514 74.8909 18.4147 74.8909 20.216V24.01C74.8909 24.1873 74.8396 24.3273 74.7369 24.43C74.6436 24.5233 74.5083 24.57 74.3309 24.57C74.1536 24.57 74.0136 24.5233 73.9109 24.43C73.8083 24.3273 73.7569 24.1873 73.7569 24.01V20.286C73.7569 19.6513 73.6309 19.1893 73.3789 18.9C73.1363 18.6107 72.7443 18.466 72.2029 18.466C71.5776 18.466 71.0783 18.6573 70.7049 19.04C70.3316 19.4227 70.1449 19.9407 70.1449 20.594V24.01C70.1449 24.1873 70.0936 24.3273 69.9909 24.43C69.8976 24.5233 69.7623 24.57 69.5849 24.57C69.4076 24.57 69.2676 24.5233 69.1649 24.43C69.0623 24.3273 69.0109 24.1873 69.0109 24.01V18.102C69.0109 17.934 69.0623 17.7987 69.1649 17.696C69.2676 17.5933 69.4076 17.542 69.5849 17.542C69.7529 17.542 69.8836 17.5933 69.9769 17.696C70.0796 17.7987 70.1309 17.9293 70.1309 18.088V18.802C70.3549 18.382 70.6676 18.0647 71.0689 17.85C71.4703 17.626 71.9276 17.514 72.4409 17.514ZM79.334 24.598C78.9046 24.598 78.494 24.5467 78.102 24.444C77.7193 24.3413 77.3786 24.1967 77.08 24.01C76.912 23.898 76.7906 23.7953 76.716 23.702C76.6506 23.5993 76.618 23.478 76.618 23.338C76.618 23.2167 76.6506 23.1187 76.716 23.044C76.7906 22.96 76.884 22.918 76.996 22.918C77.108 22.918 77.2713 22.988 77.486 23.128C77.766 23.296 78.0413 23.4313 78.312 23.534C78.592 23.6273 78.9373 23.674 79.348 23.674C79.852 23.674 80.244 23.5853 80.524 23.408C80.804 23.2307 80.944 22.974 80.944 22.638C80.944 22.4327 80.8926 22.2693 80.79 22.148C80.6873 22.0173 80.51 21.9053 80.258 21.812C80.006 21.7093 79.6373 21.6067 79.152 21.504C78.3306 21.3267 77.7426 21.0887 77.388 20.79C77.0333 20.4913 76.856 20.0853 76.856 19.572C76.856 19.1707 76.968 18.816 77.192 18.508C77.416 18.2 77.724 17.9573 78.116 17.78C78.5173 17.6027 78.97 17.514 79.474 17.514C79.838 17.514 80.188 17.5653 80.524 17.668C80.8693 17.7613 81.1726 17.8967 81.434 18.074C81.7513 18.298 81.91 18.5313 81.91 18.774C81.91 18.8953 81.8726 18.998 81.798 19.082C81.7233 19.166 81.6346 19.208 81.532 19.208C81.42 19.208 81.252 19.1287 81.028 18.97C80.7666 18.802 80.5193 18.6713 80.286 18.578C80.0526 18.4847 79.7633 18.438 79.418 18.438C78.9793 18.438 78.6246 18.536 78.354 18.732C78.0926 18.928 77.962 19.1893 77.962 19.516C77.962 19.7213 78.0086 19.8893 78.102 20.02C78.2046 20.1413 78.368 20.2533 78.592 20.356C78.8253 20.4493 79.1566 20.5427 79.586 20.636C80.2206 20.776 80.7106 20.93 81.056 21.098C81.4106 21.266 81.6626 21.4713 81.812 21.714C81.9613 21.9567 82.036 22.2647 82.036 22.638C82.036 23.226 81.7886 23.702 81.294 24.066C80.7993 24.4207 80.146 24.598 79.334 24.598ZM86.6205 17.514C88.3285 17.514 89.1825 18.41 89.1825 20.202V24.01C89.1825 24.178 89.1312 24.3133 89.0285 24.416C88.9352 24.5187 88.8045 24.57 88.6365 24.57C88.4685 24.57 88.3332 24.5187 88.2305 24.416C88.1278 24.3133 88.0765 24.178 88.0765 24.01V23.338C87.8992 23.7393 87.6285 24.052 87.2645 24.276C86.9005 24.4907 86.4805 24.598 86.0045 24.598C85.5658 24.598 85.1598 24.5093 84.7865 24.332C84.4225 24.1547 84.1332 23.9073 83.9185 23.59C83.7038 23.2727 83.5965 22.9227 83.5965 22.54C83.5965 22.0267 83.7272 21.63 83.9885 21.35C84.2498 21.0607 84.6792 20.8553 85.2765 20.734C85.8738 20.6033 86.7045 20.538 87.7685 20.538H88.0765V20.076C88.0765 19.516 87.9598 19.1053 87.7265 18.844C87.5025 18.5827 87.1338 18.452 86.6205 18.452C85.9858 18.452 85.3418 18.6247 84.6885 18.97C84.4365 19.1287 84.2592 19.208 84.1565 19.208C84.0445 19.208 83.9512 19.166 83.8765 19.082C83.8018 18.998 83.7645 18.8907 83.7645 18.76C83.7645 18.6293 83.8018 18.5173 83.8765 18.424C83.9605 18.3213 84.0912 18.2187 84.2685 18.116C84.5952 17.9293 84.9638 17.7847 85.3745 17.682C85.7945 17.57 86.2098 17.514 86.6205 17.514ZM86.1585 23.702C86.7185 23.702 87.1758 23.5153 87.5305 23.142C87.8945 22.7593 88.0765 22.2693 88.0765 21.672V21.266H87.8245C87.0032 21.266 86.3778 21.3033 85.9485 21.378C85.5192 21.4433 85.2112 21.56 85.0245 21.728C84.8472 21.8867 84.7585 22.1247 84.7585 22.442C84.7585 22.806 84.8892 23.1093 85.1505 23.352C85.4212 23.5853 85.7572 23.702 86.1585 23.702ZM89.9143 27.048C89.681 27.0667 89.5083 27.034 89.3963 26.95C89.275 26.8753 89.2143 26.7587 89.2143 26.6C89.2143 26.348 89.3777 26.2033 89.7043 26.166L90.0963 26.138C90.5163 26.11 90.8243 25.984 91.0203 25.76C91.2257 25.536 91.3283 25.1673 91.3283 24.654V18.102C91.3283 17.9247 91.3797 17.7893 91.4823 17.696C91.5943 17.5933 91.7343 17.542 91.9023 17.542C92.0703 17.542 92.2057 17.5933 92.3083 17.696C92.411 17.7893 92.4623 17.9247 92.4623 18.102V24.584C92.4623 25.368 92.285 25.956 91.9303 26.348C91.585 26.74 91.0437 26.964 90.3063 27.02L89.9143 27.048ZM91.9023 16.072C91.6783 16.072 91.4963 16.0067 91.3563 15.876C91.2163 15.7453 91.1463 15.5727 91.1463 15.358C91.1463 15.1527 91.2163 14.9847 91.3563 14.854C91.4963 14.7233 91.6783 14.658 91.9023 14.658C92.1263 14.658 92.3083 14.7233 92.4483 14.854C92.5883 14.9847 92.6583 15.1527 92.6583 15.358C92.6583 15.5727 92.5883 15.7453 92.4483 15.876C92.3083 16.0067 92.1263 16.072 91.9023 16.072ZM99.9302 22.918C100.033 22.918 100.122 22.96 100.196 23.044C100.271 23.128 100.308 23.2353 100.308 23.366C100.308 23.5993 100.145 23.814 99.8182 24.01C99.4822 24.206 99.1276 24.3553 98.7542 24.458C98.3809 24.5513 98.0169 24.598 97.6622 24.598C96.6076 24.598 95.7722 24.2853 95.1562 23.66C94.5496 23.0347 94.2462 22.1713 94.2462 21.07C94.2462 20.37 94.3816 19.754 94.6522 19.222C94.9229 18.6807 95.3009 18.2607 95.7862 17.962C96.2809 17.6633 96.8409 17.514 97.4662 17.514C98.3529 17.514 99.0576 17.8033 99.5802 18.382C100.103 18.9607 100.364 19.7447 100.364 20.734C100.364 20.9207 100.327 21.056 100.252 21.14C100.178 21.224 100.056 21.266 99.8882 21.266H95.3802C95.4642 22.8713 96.2249 23.674 97.6622 23.674C98.0262 23.674 98.3389 23.6273 98.6002 23.534C98.8616 23.4313 99.1416 23.296 99.4402 23.128C99.6829 22.988 99.8462 22.918 99.9302 22.918ZM97.4802 18.396C96.8829 18.396 96.4022 18.5827 96.0382 18.956C95.6836 19.3293 95.4736 19.8567 95.4082 20.538H99.3702C99.3516 19.8473 99.1789 19.32 98.8522 18.956C98.5256 18.5827 98.0682 18.396 97.4802 18.396ZM104.401 24.598C103.972 24.598 103.561 24.5467 103.169 24.444C102.786 24.3413 102.446 24.1967 102.147 24.01C101.979 23.898 101.858 23.7953 101.783 23.702C101.718 23.5993 101.685 23.478 101.685 23.338C101.685 23.2167 101.718 23.1187 101.783 23.044C101.858 22.96 101.951 22.918 102.063 22.918C102.175 22.918 102.338 22.988 102.553 23.128C102.833 23.296 103.108 23.4313 103.379 23.534C103.659 23.6273 104.004 23.674 104.415 23.674C104.919 23.674 105.311 23.5853 105.591 23.408C105.871 23.2307 106.011 22.974 106.011 22.638C106.011 22.4327 105.96 22.2693 105.857 22.148C105.754 22.0173 105.577 21.9053 105.325 21.812C105.073 21.7093 104.704 21.6067 104.219 21.504C103.398 21.3267 102.81 21.0887 102.455 20.79C102.1 20.4913 101.923 20.0853 101.923 19.572C101.923 19.1707 102.035 18.816 102.259 18.508C102.483 18.2 102.791 17.9573 103.183 17.78C103.584 17.6027 104.037 17.514 104.541 17.514C104.905 17.514 105.255 17.5653 105.591 17.668C105.936 17.7613 106.24 17.8967 106.501 18.074C106.818 18.298 106.977 18.5313 106.977 18.774C106.977 18.8953 106.94 18.998 106.865 19.082C106.79 19.166 106.702 19.208 106.599 19.208C106.487 19.208 106.319 19.1287 106.095 18.97C105.834 18.802 105.586 18.6713 105.353 18.578C105.12 18.4847 104.83 18.438 104.485 18.438C104.046 18.438 103.692 18.536 103.421 18.732C103.16 18.928 103.029 19.1893 103.029 19.516C103.029 19.7213 103.076 19.8893 103.169 20.02C103.272 20.1413 103.435 20.2533 103.659 20.356C103.892 20.4493 104.224 20.5427 104.653 20.636C105.288 20.776 105.778 20.93 106.123 21.098C106.478 21.266 106.73 21.4713 106.879 21.714C107.028 21.9567 107.103 22.2647 107.103 22.638C107.103 23.226 106.856 23.702 106.361 24.066C105.866 24.4207 105.213 24.598 104.401 24.598Z" fill="#85D1CE"/>
</svg>
