<svg width="98" height="40" viewBox="0 0 98 40" fill="none" xmlns="http://www.w3.org/2000/svg">
<rect width="98" height="40" rx="20" fill="#0E172C"/>
<path d="M36 29V27C36 25.9391 35.5786 24.9217 34.8284 24.1716C34.0783 23.4214 33.0609 23 32 23H24C22.9391 23 21.9217 23.4214 21.1716 24.1716C20.4214 24.9217 20 25.9391 20 27V29" stroke="#85D1CE" stroke-width="2" stroke-linecap="round" stroke-linejoin="round"/>
<path d="M28 19C30.2091 19 32 17.2091 32 15C32 12.7909 30.2091 11 28 11C25.7909 11 24 12.7909 24 15C24 17.2091 25.7909 19 28 19Z" stroke="#85D1CE" stroke-width="2" stroke-linecap="round" stroke-linejoin="round"/>
<path d="M49.792 24.57C49.6147 24.57 49.4747 24.5187 49.372 24.416C49.2693 24.304 49.218 24.1593 49.218 23.982V15.19C49.218 15.022 49.2693 14.8867 49.372 14.784C49.484 14.6813 49.6287 14.63 49.806 14.63H53.124C54.16 14.63 54.9627 14.882 55.532 15.386C56.1107 15.89 56.4 16.604 56.4 17.528C56.4 18.452 56.1107 19.1707 55.532 19.684C54.9533 20.1973 54.1507 20.454 53.124 20.454H50.366V23.982C50.366 24.1593 50.3147 24.304 50.212 24.416C50.1093 24.5187 49.9693 24.57 49.792 24.57ZM53.012 19.502C54.5147 19.502 55.266 18.844 55.266 17.528C55.266 16.2307 54.5147 15.582 53.012 15.582H50.366V19.502H53.012ZM63.2027 22.918C63.3054 22.918 63.394 22.96 63.4687 23.044C63.5434 23.128 63.5807 23.2353 63.5807 23.366C63.5807 23.5993 63.4174 23.814 63.0907 24.01C62.7547 24.206 62.4 24.3553 62.0267 24.458C61.6534 24.5513 61.2894 24.598 60.9347 24.598C59.88 24.598 59.0447 24.2853 58.4287 23.66C57.822 23.0347 57.5187 22.1713 57.5187 21.07C57.5187 20.37 57.654 19.754 57.9247 19.222C58.1954 18.6807 58.5734 18.2607 59.0587 17.962C59.5534 17.6633 60.1134 17.514 60.7387 17.514C61.6254 17.514 62.33 17.8033 62.8527 18.382C63.3754 18.9607 63.6367 19.7447 63.6367 20.734C63.6367 20.9207 63.5994 21.056 63.5247 21.14C63.45 21.224 63.3287 21.266 63.1607 21.266H58.6527C58.7367 22.8713 59.4974 23.674 60.9347 23.674C61.2987 23.674 61.6114 23.6273 61.8727 23.534C62.134 23.4313 62.414 23.296 62.7127 23.128C62.9554 22.988 63.1187 22.918 63.2027 22.918ZM60.7527 18.396C60.1554 18.396 59.6747 18.5827 59.3107 18.956C58.956 19.3293 58.746 19.8567 58.6807 20.538H62.6427C62.624 19.8473 62.4514 19.32 62.1247 18.956C61.798 18.5827 61.3407 18.396 60.7527 18.396ZM68.7515 17.542C69.1435 17.514 69.3395 17.6727 69.3395 18.018C69.3395 18.1673 69.2975 18.2887 69.2135 18.382C69.1295 18.466 68.9848 18.5173 68.7795 18.536L68.3595 18.578C67.7342 18.634 67.2675 18.858 66.9595 19.25C66.6608 19.6327 66.5115 20.0853 66.5115 20.608V24.01C66.5115 24.1967 66.4602 24.3367 66.3575 24.43C66.2548 24.5233 66.1195 24.57 65.9515 24.57C65.7835 24.57 65.6435 24.5233 65.5315 24.43C65.4288 24.3273 65.3775 24.1873 65.3775 24.01V18.102C65.3775 17.9247 65.4335 17.7893 65.5455 17.696C65.6575 17.5933 65.7928 17.542 65.9515 17.542C66.1008 17.542 66.2268 17.5933 66.3295 17.696C66.4322 17.7893 66.4835 17.92 66.4835 18.088V18.872C66.6795 18.4613 66.9548 18.1487 67.3095 17.934C67.6735 17.7193 68.0888 17.5933 68.5555 17.556L68.7515 17.542ZM76.1519 17.682C76.3106 17.682 76.4319 17.724 76.5159 17.808C76.5999 17.892 76.6419 18.004 76.6419 18.144V24.01C76.6419 24.1873 76.5859 24.3273 76.4739 24.43C76.3713 24.5233 76.2406 24.57 76.0819 24.57C75.9139 24.57 75.7739 24.5233 75.6619 24.43C75.5593 24.3273 75.5079 24.1873 75.5079 24.01V18.578H72.4419V24.01C72.4419 24.1873 72.3859 24.3273 72.2739 24.43C72.1713 24.5233 72.0406 24.57 71.8819 24.57C71.7139 24.57 71.5739 24.5233 71.4619 24.43C71.3593 24.3273 71.3079 24.1873 71.3079 24.01V18.578H70.3699C70.2113 18.578 70.0853 18.5407 69.9919 18.466C69.9079 18.382 69.8659 18.2747 69.8659 18.144C69.8659 18.004 69.9079 17.892 69.9919 17.808C70.0853 17.724 70.2113 17.682 70.3699 17.682H71.3079V17.444C71.3079 16.604 71.5179 15.946 71.9379 15.47C72.3579 14.9847 72.9599 14.7093 73.7439 14.644L74.0799 14.616C74.5279 14.5787 74.7519 14.7187 74.7519 15.036C74.7519 15.3067 74.5933 15.4607 74.2759 15.498L73.9399 15.526C73.4453 15.5633 73.0719 15.722 72.8199 16.002C72.5679 16.2727 72.4419 16.6833 72.4419 17.234V17.682H76.1519ZM76.0819 14.658C76.2966 14.658 76.4739 14.7233 76.6139 14.854C76.7633 14.9847 76.8379 15.1527 76.8379 15.358C76.8379 15.5727 76.7679 15.7453 76.6279 15.876C76.4879 16.0067 76.3059 16.072 76.0819 16.072C75.8579 16.072 75.6759 16.0067 75.5359 15.876C75.3959 15.7453 75.3259 15.5727 75.3259 15.358C75.3259 15.1527 75.3959 14.9847 75.5359 14.854C75.6759 14.7233 75.8579 14.658 76.0819 14.658ZM79.3942 24.57C79.2262 24.57 79.0862 24.5233 78.9742 24.43C78.8716 24.3273 78.8202 24.1873 78.8202 24.01V15.12C78.8202 14.9427 78.8716 14.8073 78.9742 14.714C79.0862 14.6113 79.2262 14.56 79.3942 14.56C79.5529 14.56 79.6836 14.6113 79.7862 14.714C79.8982 14.8073 79.9542 14.9427 79.9542 15.12V24.01C79.9542 24.1873 79.8982 24.3273 79.7862 24.43C79.6836 24.5233 79.5529 24.57 79.3942 24.57Z" fill="#85D1CE"/>
</svg>
