<svg id="Capa_1" enable-background="new 0 0 512 512" height="512" viewBox="0 0 512 512" width="512" xmlns="http://www.w3.org/2000/svg"><g><g><g><path d="m509.889 80.443-124.05 77.495c-18.844-22.425-51.364-29.901-78.501-20.351l-93.346 32.609c-15.031 9.568-19.459 29.509-9.891 44.539l12.198 19.161-140.409 75.588c-15.43 8.462-20.914 27.939-12.165 43.208 8.634 15.07 27.851 20.287 42.921 11.652l-16.028 18.3c-14.583 9.283-18.88 28.631-9.597 43.214 9.283 14.583 28.631 18.88 43.214 9.597l26.369-16.639c-13.976 8.896-18.093 27.438-9.197 41.414 8.896 13.976 27.438 18.093 41.414 9.197l29.645-18.521c-12.471 8.796-15.451 26.037-6.654 38.509 8.796 12.471 26.037 15.451 38.509 6.654l193.425-135.656c24.682-15.712 35.274-45.199 28.148-72.046l43.995-26.144z" fill="#a07575"/></g><g><path d="m431.912 313.448-122.889-71.748c2.23 7.567 3.356 15.434 2.345 23.252-1.45 11.21-7.879 20.741-18.061 25.846-11.719 5.875-29.633 9.432-39.488-.014-4.91-4.707-41.223-61.876-46.495-76.351-13.19-36.214 23.745-49.021 52.151-61.512l-54.312-17.522c-26.871-10.275-59.58-3.675-79.02 18.235l-124.438-78.926.3 184.098 40.611 23.061c-7.845 26.646 1.952 56.407 26.202 72.775l138.159 102.691.164-.242 51.389 38.352c12.23 9.128 29.545 6.613 38.673-5.618 9.128-12.23 6.612-29.545-5.618-38.673l-93.73-63.622 122.867 82.932c13.732 9.269 32.377 5.651 41.646-8.081 9.269-13.732 5.65-32.378-8.081-41.646l-101.451-68.626 127.364 85.967c14.329 9.672 33.785 5.896 43.456-8.433 9.671-14.329 5.896-33.785-8.433-43.456l-15.53-18.724c14.832 9.036 34.182 4.337 43.218-10.495 9.157-15.03 4.199-34.647-10.999-43.52z" fill="#efc5b4"/></g><g><path d="m151.518 420.234c-9.456 12.124-14.926 21.19-14.706 25.554 1.269 25.223 29.59 32.201 58.31 17.406 6.051 3.172 10.549 28.038 16.536 31.331 13.409 7.376 17.098-4.847 30.461 2.611.516.288 4.761-2.335 11.701-7.062-34.418-22.851-69.499-44.774-102.302-69.84z" fill="#925873"/></g><g><path d="m465.958 210.374c-16.023 10.284-35.923 13.03-53.905 6.776-8.767-3.049-18.632-4.527-28.989-4.005-8.554.43-60.151 37.833-59.898 38.107 5.733 6.22 101.359 54.524 137.708 88.077 6.714-13.934 9.066-35.721 5.02-50.96l43.995-27.437v-78.782z" fill="#925873"/></g><g><path d="m263.792 2.683 6.111 17.183c.262.736.78 1.319 1.433 1.613l15.267 6.878c2.157.972 2.157 4.408 0 5.38l-15.267 6.878c-.654.294-1.172.877-1.433 1.613l-6.111 17.183c-.863 2.428-3.917 2.428-4.78 0l-6.111-17.183c-.262-.736-.779-1.319-1.433-1.613l-15.267-6.878c-2.157-.972-2.157-4.408 0-5.38l15.267-6.878c.654-.295 1.172-.878 1.433-1.613l6.111-17.183c.864-2.428 3.917-2.428 4.78 0z" fill="#f0c6b5"/></g><g><circle cx="168.448" cy="56.863" fill="#e9a385" r="7.76"/></g><g><ellipse cx="390.37" cy="57.898" fill="#e9a385" rx="17.989" ry="17.989" transform="matrix(.16 -.987 .987 .16 270.689 433.954)"/></g></g><g><g><path d="m496.621 257.138-36.077 22.747c-3.71 2.339-5.469 6.818-4.344 11.057 3.07 11.565 2.276 23.38-1.755 33.958-3.423-8.423-9.479-15.444-17.477-20.113l-102.475-59.83c16.271-2.761 31.361-11.12 42.452-24.151 3.59-4.218 3.081-10.548-1.137-14.138s-10.549-3.081-14.138 1.137c-12.087 14.202-30.773 20.701-49.028 17.142l-15.249-23.954c-2.975-4.672-9.173-6.049-13.846-3.075-4.673 2.975-6.049 9.174-3.074 13.847l21.632 33.982c7.516 11.808 4.024 27.529-7.783 35.046l-4.701 2.992c-5.72 3.641-12.515 4.836-19.135 3.367-6.619-1.47-12.27-5.43-15.912-11.15l-38.628-60.682c-6.686-10.503-6.652-26.441 4.919-34.161 28.863-13.096 58.512-24.64 89.296-33.947.171-.05.34-.105.507-.164 24.05-8.464 51.803-1.33 67.493 17.342 3.245 3.86 8.851 4.713 13.095 1.989l116.131-74.522c4.662-2.991 6.017-9.195 3.024-13.857-2.992-4.661-9.197-6.017-13.857-3.024l-109.17 70.055c-21.445-19.995-54.331-27.011-83.114-16.995l-46.519 13.64c-.96-.244-1.8-.484-2.419-.723-.647-.251-1.304-.429-1.963-.541l-44.881-14.479c-28.536-10.8-61.635-4.645-83.606 14.816l-109.298-72.696c-4.611-3.065-10.836-1.815-13.904 2.797s-1.816 10.838 2.796 13.905l116.115 77.229c4.166 2.77 9.735 2.048 13.057-1.695 16.188-18.245 44.122-24.63 67.935-15.524.165.064.333.122.502.177l28.195 9.096-18.885 9.429c-.31.155-.613.326-.906.513-20.012 12.739-25.154 40.601-11.463 62.11l38.628 60.682c6.518 10.24 16.634 17.328 28.484 19.96 3.306.734 6.635 1.097 9.941 1.097 1.871 0 3.731-.137 5.577-.368.662.878 1.46 1.655 2.388 2.281l125.57 84.757c4.709 3.179 7.899 8.001 8.981 13.579s-.072 11.243-3.252 15.953c-3.178 4.71-8.001 7.9-13.579 8.982-5.578 1.083-11.244-.073-15.953-3.251l-127.364-85.967c-4.583-3.092-10.8-1.895-13.908 2.678-3.106 4.573-1.926 10.796 2.638 13.915l17.521 11.975 83.978 56.684c4.421 2.984 7.415 7.511 8.432 12.747 1.016 5.236-.068 10.555-3.053 14.976-2.983 4.421-7.51 7.415-12.746 8.431-5.236 1.018-10.554-.068-14.975-3.052l-122.867-82.932c-4.589-3.096-10.816-1.892-13.917 2.691-3.102 4.583-1.906 10.812 2.673 13.92l93.524 63.482c7.641 5.837 9.185 16.791 3.42 24.516-5.806 7.78-16.859 9.385-24.638 3.579l-51.388-38.353c-.661-.493-1.373-.898-2.12-1.211l-136.219-101.248c-.123-.091-.247-.178-.372-.263-20.127-13.586-29.046-38.353-22.193-61.63 1.225-4.162-.364-8.641-3.94-11.098l-32.586-22.395c-4.565-3.138-10.81-1.98-13.946 2.585-3.137 4.565-1.98 10.809 2.585 13.946l26.9 18.488c-4.926 25.628 3.705 51.721 22.665 69.345.354.708.711 1.416 1.109 2.11 5.508 9.612 14.43 16.505 25.121 19.408.272.074.546.145.818.213-15.734 13.098-19.679 36.228-8.401 53.945 5.927 9.313 15.128 15.76 25.906 18.153 9.68 2.15 19.59.798 28.255-3.794.244 6.885 2.266 13.794 6.225 20.013 11.852 18.618 36.64 24.122 55.261 12.272l2.608-1.661c.481 6.761 2.793 13.286 6.8 18.968 7.328 10.389 18.991 15.943 30.831 15.942 7.5-.001 15.073-2.23 21.654-6.872l1.79-1.263.641.478c6.748 5.036 14.643 7.466 22.48 7.465 11.49-.001 22.845-5.228 30.231-15.123 4.245-5.689 6.638-12.197 7.284-18.794l2.586 1.745c8.861 5.981 19.522 8.155 30.018 6.117 10.497-2.037 19.571-8.039 25.551-16.901 4.043-5.989 6.346-12.8 6.785-19.826 18.547 10.439 42.389 5.036 54.504-12.912 11.749-17.408 8.427-40.635-6.95-54.15.274-.061.548-.125.823-.191 10.328-2.508 19.118-8.739 24.906-17.595 20.664-17.049 30.736-43.664 26.405-70.193l30.164-19.018c4.684-2.954 6.088-9.147 3.134-13.833-2.955-4.686-9.148-6.091-13.833-3.136zm-377.771 169.858c-4.793 3.051-10.486 4.054-16.034 2.821-5.547-1.232-10.282-4.55-13.334-9.343-6.299-9.895-3.373-23.069 6.522-29.367l2.726-1.735 36.549 27.167zm31.018 27.849c-5.204-8.176-3.693-18.733 3.077-25.178l33.982 25.258-9.49 6.041c-9.287 5.913-21.655 3.168-27.569-6.121zm64.14 28.79c-2.346-3.327-3.443-7.272-3.178-11.277l23.631 17.636c-7.291 2.677-15.767.283-20.453-6.359zm220.339-131.885c-2.977 4.886-7.678 8.32-13.237 9.67-5.559 1.353-11.312.454-16.139-2.485l-99.428-61.525c12.137-7.929 19.251-20.742 20.402-34.216l100.909 58.915c5.006 2.923 8.545 7.628 9.967 13.248 1.42 5.621.542 11.442-2.474 16.393z" fill="#3c122c"/></g><g><path d="m149.578 378.252c-1.998 0-4.015-.596-5.772-1.834-18.871-13.31-33.275-25.694-45.329-38.973-3.723-4.101-3.416-10.444.685-14.167 4.102-3.722 10.444-3.416 14.167.685 11.041 12.162 24.399 23.622 42.039 36.064 4.527 3.192 5.608 9.45 2.415 13.976-1.954 2.769-5.055 4.249-8.205 4.249z" fill="#fff"/></g><g><path d="m85.524 311.481c-3.777 0-7.393-2.143-9.095-5.79-1.671-3.579-2.795-6.856-3.439-10.018-1.104-5.428 2.402-10.723 7.829-11.827 5.428-1.102 10.723 2.401 11.827 7.829.324 1.594.965 3.404 1.958 5.532 2.343 5.019.173 10.987-4.846 13.33-1.371.641-2.814.944-4.234.944z" fill="#fff"/></g></g></g></svg>