<svg xmlns="http://www.w3.org/2000/svg" enable-background="new 0 0 512 512" viewBox="0 0 512 512"><rect width="59.43" height="125.03" x="347.09" y="314.13" fill="#eab67d"/><path fill="#1a1a1a" d="M398.63,322.02v109.24h-43.64V322.02H398.63 M414.42,306.23h-15.79h-43.64H339.2v15.79v109.24v15.79h15.79
				h43.64h15.79v-15.79V322.02V306.23L414.42,306.23z"/><rect width="59.43" height="125.03" x="371.92" y="314.13" fill="#f7d5a9"/><path fill="#1a1a1a" d="M423.46,322.02v109.24h-43.64V322.02H423.46 M439.25,306.23h-15.79h-43.64h-15.79v15.79v109.24v15.79h15.79
				h43.64h15.79v-15.79V322.02V306.23L439.25,306.23z"/><rect width="59.43" height="125.03" x="173.25" y="314.13" fill="#eab67d"/><path fill="#1a1a1a" d="M224.79,322.02v109.24h-43.64V322.02H224.79 M240.58,306.23h-15.79h-43.64h-15.79v15.79v109.24v15.79h15.79
				h43.64h15.79v-15.79V322.02V306.23L240.58,306.23z"/><rect width="59.43" height="125.03" x="198.09" y="314.13" fill="#f7d5a9"/><path fill="#1a1a1a" d="M249.62,322.02v109.24h-43.64V322.02H249.62 M265.41,306.23h-15.79h-43.64h-15.79v15.79v109.24v15.79h15.79
				h43.64h15.79v-15.79V322.02V306.23L265.41,306.23z"/><path fill="#fff" d="M343.45,397.76c-15.16,0-29.91-5.39-41.51-15c-11.59,9.55-26.29,14.9-41.4,14.9
			c-7.57,0-15.04-1.32-22.21-3.93c-17.46-6.35-31.34-19.97-38.15-37.09c-1,0.05-2.01,0.07-3.01,0.07
			c-23.17,0-44.75-12.45-56.32-32.48c-11.64-20.17-11.53-44.78-0.18-64.68c-17.39-14.82-25.87-37.87-21.84-60.74
			c4.05-22.99,20.35-42.09,42.14-49.91c3.11-13.84,10.67-26.3,21.61-35.49c11.68-9.8,26.5-15.2,41.72-15.2
			c7.46,0,14.92,1.3,21.94,3.8c11.57-19.7,32.81-32.06,56.03-32.06c23.29,0,44.55,12.41,56.11,32.19
			c6.97-2.47,14.38-3.75,21.79-3.75c15.23,0,30.04,5.4,41.72,15.2c10.99,9.22,18.56,21.74,21.65,35.65
			c21.67,7.86,37.89,26.94,41.93,49.84c4.04,22.93-4.49,46.02-21.96,60.84c11.27,19.87,11.36,44.44-0.25,64.54
			c-11.57,20.04-33.15,32.48-56.32,32.48c0,0,0,0,0,0c-1.06,0-2.12-0.03-3.19-0.08c-6.84,17.06-20.7,30.62-38.1,36.95
			C358.5,396.44,351.02,397.76,343.45,397.76z"/><path fill="#1a1a1a" d="M302.27,77.85c23.47,0,43.63,14.17,52.4,34.42c7.97-3.97,16.72-5.98,25.5-5.98
				c12.94,0,25.96,4.38,36.65,13.35c11.22,9.42,17.9,22.23,19.81,35.68c20.58,5.68,37.12,22.71,41.07,45.13
				c4.08,23.12-6.38,45.43-24.8,57.58c13.08,17.71,15.25,42.2,3.53,62.48c-10.57,18.31-29.75,28.54-49.48,28.54
				c-2.87,0-5.75-0.22-8.62-0.66c-4.85,16.99-17.49,31.5-35.37,38.01c-6.44,2.34-13.03,3.46-19.51,3.46
				c-15.71,0-30.76-6.53-41.5-17.88c-10.73,11.29-25.75,17.79-41.41,17.79c-6.48,0-13.07-1.11-19.51-3.46
				c-17.92-6.52-30.57-21.09-35.4-38.13c-2.82,0.42-5.65,0.63-8.46,0.63c-19.72,0-38.91-10.23-49.48-28.54
				c-11.74-20.33-9.54-44.87,3.61-62.59c-18.35-12.17-28.76-34.44-24.69-57.51c3.97-22.49,20.59-39.56,41.26-45.18
				c1.94-13.39,8.61-26.15,19.79-35.54c10.69-8.97,23.71-13.35,36.65-13.35c8.82,0,17.62,2.04,25.62,6.04
				C258.72,91.97,278.84,77.85,302.27,77.85 M302.27,62.06c-23.9,0-45.91,11.67-59.41,30.66c-6.05-1.58-12.3-2.4-18.56-2.4
				c-17.08,0-33.7,6.05-46.8,17.04c-11.17,9.37-19.2,21.79-23.18,35.65c-9.4,4-17.89,9.94-24.92,17.49
				c-9.56,10.28-15.91,23.05-18.35,36.92c-4.15,23.53,3.52,47.23,19.87,63.81c-9.77,21.21-8.89,46.17,3.09,66.92
				c12.62,21.86,35.87,35.67,61.05,36.4c8.22,16.83,22.73,30.08,40.57,36.58c8.04,2.93,16.42,4.41,24.91,4.41
				c14.82,0,29.3-4.6,41.39-12.91c12.12,8.38,26.65,13.01,41.53,13.01c8.49,0,16.87-1.48,24.91-4.41
				c17.78-6.47,32.26-19.67,40.5-36.42c25.25-0.67,48.59-14.49,61.25-36.41c11.95-20.69,12.85-45.58,3.16-66.76
				c16.44-16.59,24.15-40.34,19.99-63.94c-2.44-13.83-8.76-26.57-18.27-36.84c-6.98-7.53-15.43-13.48-24.78-17.49
				c-3.96-13.93-12.01-26.42-23.24-35.84c-13.1-10.99-29.72-17.04-46.8-17.04c-6.2,0-12.4,0.8-18.39,2.36
				C348.29,73.78,326.24,62.06,302.27,62.06L302.27,62.06z"/><path fill="#eab67d" d="M48.16,239.21c-13.55,0-19.65-5.63-22.38-10.36c-2.7-4.67-5.53-14.77,5.77-29.93
				c7-9.39,17.97-18.66,30.87-26.11c15.49-8.94,31.7-14.07,44.48-14.07c13.55,0,19.65,5.63,22.38,10.36
				c2.7,4.67,5.53,14.77-5.77,29.92c-7,9.39-17.96,18.66-30.87,26.11C77.14,234.08,60.93,239.21,48.16,239.21
				C48.16,239.21,48.16,239.21,48.16,239.21z"/><path fill="#1a1a1a" d="M106.9,166.64c7.44,0,13.04,2.09,15.54,6.41c6.16,10.67-8.95,30.93-33.75,45.25
				c-14.75,8.52-29.61,13.02-40.53,13.02c-7.44,0-13.04-2.09-15.54-6.41c-6.16-10.67,8.95-30.93,33.75-45.25
				C81.13,171.13,95.99,166.64,106.9,166.64 M106.9,150.85c-14.12,0-31.77,5.51-48.42,15.13c-13.81,7.97-25.62,18-33.25,28.23
				c-14.01,18.78-9.95,32.24-6.28,38.59c3.08,5.34,10.98,14.31,29.21,14.31c14.12,0,31.77-5.51,48.42-15.13
				c13.81-7.97,25.62-18,33.25-28.23c14.01-18.78,9.95-32.24,6.28-38.59C133.03,159.81,125.13,150.85,106.9,150.85L106.9,150.85z"/><path fill="#eab67d" d="M268.32,239.21c-12.77,0-28.99-5.13-44.48-14.07c-12.9-7.45-23.87-16.72-30.87-26.11
				c-11.3-15.16-8.47-25.25-5.77-29.93c2.73-4.73,8.83-10.36,22.38-10.36c12.77,0,28.99,5.13,44.48,14.07
				c12.9,7.45,23.87,16.72,30.87,26.11c11.31,15.16,8.47,25.26,5.77,29.93C287.97,233.58,281.88,239.21,268.32,239.21z"/><path fill="#1a1a1a" d="M209.58,166.64c10.92,0,25.78,4.5,40.53,13.02c24.8,14.32,39.92,34.58,33.75,45.25
				c-2.5,4.32-8.1,6.41-15.54,6.41c-10.92,0-25.78-4.5-40.53-13.02c-24.8-14.32-39.92-34.58-33.75-45.25
				C196.54,168.72,202.14,166.64,209.58,166.64 M209.58,150.85L209.58,150.85c-18.23,0-26.13,8.96-29.21,14.31
				c-3.67,6.35-7.73,19.81,6.28,38.59c7.63,10.23,19.44,20.25,33.25,28.23c16.66,9.62,34.3,15.13,48.42,15.13
				c18.23,0,26.13-8.96,29.21-14.31c3.67-6.35,7.73-19.81-6.28-38.59c-7.63-10.23-19.44-20.25-33.25-28.23
				C241.35,156.36,223.7,150.85,209.58,150.85L209.58,150.85z"/><path fill="#1a1a1a" d="M265.9,152.31c-15.04-8.69-30.9-14.42-45.27-16.42c-9.33-7.99-19.78-14.07-30.85-18.08
		c-0.71,0.54-1.44,1.07-2.13,1.66c-11.18,9.38-17.85,22.14-19.79,35.54c-20.66,5.63-37.29,22.69-41.26,45.18
		c-4.07,23.07,6.34,45.34,24.69,57.51c-13.15,17.72-15.35,42.26-3.61,62.59c6.83,11.83,17.26,20.28,29.1,24.78
		c38.4-7.98,69.99-40.22,80.84-82.92c3.68,0.49,7.26,0.74,10.73,0.74c27.12,0,39-15.52,42.85-22.19c4.52-7.82,12.85-28.92-7.3-55.93
		C295.02,172.86,281.52,161.33,265.9,152.31z" opacity=".2"/><ellipse cx="158.24" cy="229.6" fill="#f7d5a9" rx="79.73" ry="93.7"/><path fill="#1a1a1a" d="M158.24,143.8c39.68,0,71.84,38.42,71.84,85.81s-32.16,85.81-71.84,85.81S86.4,276.99,86.4,229.6
				S118.57,143.8,158.24,143.8 M158.24,128.01c-23.94,0-46.28,10.93-62.9,30.79c-15.94,19.04-24.72,44.19-24.72,70.81
				s8.78,51.77,24.72,70.81c16.62,19.85,38.96,30.79,62.9,30.79s46.28-10.93,62.9-30.79c15.94-19.04,24.72-44.19,24.72-70.81
				s-8.78-51.77-24.72-70.81C204.52,138.94,182.18,128.01,158.24,128.01L158.24,128.01z"/><path fill="#1a1a1a" d="M243.85,135.78c-9.77-8.2-22.17-12.72-34.92-12.72c-3.47,0-6.93,0.34-10.34,0.99
		c-10.16-12.59-25.61-20.22-42.31-20.22c-16.64,0-32.06,7.59-42.23,20.12c-3.44-0.67-6.95-1.02-10.46-1.02
		c-12.74,0-25.15,4.52-34.92,12.72c-11.13,9.34-17.95,22.44-19.22,36.91c-1.27,14.47,3.18,28.56,12.51,39.69
		c10.36,12.34,25.55,19.42,41.67,19.42c12.75,0,25.15-4.52,34.93-12.72c2.68-2.25,5.11-4.71,7.28-7.38c3.41,0.66,6.89,1,10.44,1
		c3.5,0,6.95-0.33,10.32-0.97c2.18,2.7,4.64,5.2,7.35,7.47c9.78,8.2,22.18,12.72,34.93,12.72c16.12,0,31.31-7.08,41.67-19.42
		C269.82,189.41,266.82,155.05,243.85,135.78z" opacity=".2"/><path fill="#fff" d="M208.88,208.11c-10.9,0-21.5-3.86-29.85-10.88c-3.6-3.02-6.67-6.49-9.16-10.36
			c-4.37,1.34-8.92,2.02-13.58,2.02c-4.7,0-9.28-0.69-13.68-2.05c-2.49,3.84-5.53,7.28-9.11,10.28
			c-8.36,7.01-18.96,10.87-29.85,10.87c-13.79,0-26.77-6.05-35.62-16.6c-7.98-9.51-11.78-21.56-10.7-33.92s6.92-23.57,16.43-31.55
			c8.35-7.01,18.95-10.87,29.84-10.87c4.64,0,9.28,0.71,13.71,2.06c8.48-13.06,23.08-21.17,38.98-21.17
			c15.95,0,30.57,8.14,39.04,21.26c4.4-1.34,9-2.03,13.61-2.03c10.89,0,21.49,3.86,29.84,10.87c19.63,16.47,22.2,45.85,5.73,65.48
			C235.65,202.06,222.67,208.11,208.88,208.11C208.88,208.11,208.88,208.11,208.88,208.11z"/><path fill="#1a1a1a" d="M156.28,103.83c15.87,0,29.49,9.58,35.42,23.27c5.39-2.68,11.3-4.04,17.24-4.04
				c8.75,0,17.54,2.96,24.77,9.02c16.32,13.7,18.45,38.03,4.76,54.36c-7.63,9.1-18.56,13.78-29.58,13.78
				c-8.75,0-17.55-2.96-24.78-9.03c-4.76-4-8.31-8.9-10.61-14.24c-5.18,2.59-11.02,4.05-17.21,4.05c-6.22,0-12.08-1.48-17.29-4.09
				c-2.31,5.31-5.84,10.19-10.58,14.16c-7.23,6.07-16.03,9.03-24.78,9.03c-11.01,0-21.94-4.69-29.58-13.78
				c-13.7-16.32-11.57-40.66,4.76-54.36c7.23-6.06,16.02-9.02,24.77-9.02c5.96,0,11.91,1.38,17.31,4.08
				C126.85,113.38,140.45,103.83,156.28,103.83 M156.28,88.05c-16.64,0-32.06,7.59-42.23,20.12c-3.44-0.67-6.95-1.02-10.46-1.02
				c-12.74,0-25.15,4.52-34.92,12.72c-22.97,19.27-25.97,53.63-6.7,76.6c10.36,12.34,25.55,19.42,41.67,19.42
				c12.75,0,25.15-4.52,34.93-12.72c2.68-2.25,5.11-4.71,7.28-7.38c3.41,0.66,6.89,1,10.44,1c3.5,0,6.95-0.33,10.32-0.97
				c2.18,2.7,4.64,5.2,7.35,7.47c9.78,8.2,22.18,12.72,34.93,12.72c16.12,0,31.31-7.08,41.67-19.42
				c19.27-22.97,16.26-57.33-6.7-76.6c-9.77-8.2-22.17-12.72-34.92-12.72c-3.47,0-6.93,0.34-10.34,0.99
				C188.43,95.67,172.98,88.05,156.28,88.05L156.28,88.05z"/><circle cx="127.31" cy="237.52" r="7.89" fill="#1a1a1a"/><circle cx="185.2" cy="237.52" r="7.89" fill="#1a1a1a"/><rect width="68.48" height="15.79" x="181.15" y="415.47" fill="#1a1a1a" opacity=".2"/><rect width="68.48" height="15.79" x="354.82" y="415.47" fill="#1a1a1a" opacity=".2"/></svg>